<svg width="394" height="298" viewBox="0 0 394 298" fill="none" xmlns="http://www.w3.org/2000/svg">
<path d="M83 145H393C393 145 383.721 117.057 371.5 103.5C360.511 91.3096 337 79.5 337 79.5H83C45.5 79.5 56 145 83 145Z" fill="#04052E"/>
<path d="M155.5 210.5H393V145H83C56 145 45.5 79.5 83 79.5H337C387.5 79.5 393 71.5 393 40.5C393 9.5 364.5 1 337 1H78.5002C19 1 0.200022 46.7 1.00002 111.5C2.00002 192.5 48.5 207.5 72 210.5H155.5Z" fill="white"/>
<path d="M120.5 229C140.1 229.8 152 217 155.5 210.5H72C76.5 216.667 92.5 229 120.5 229Z" fill="black"/>
<path d="M60.5 296.5H259.5C292.5 298.5 365.4 284.1 393 210.5H155.5C152 217 140.1 229.8 120.5 229L60.5 296.5Z" fill="#1D1E4B"/>
<path d="M393 210.5C365.4 284.1 292.5 298.5 259.5 296.5H60.5L120.5 229M393 210.5H155.5M393 210.5V145M155.5 210.5C152 217 140.1 229.8 120.5 229M155.5 210.5H72M120.5 229C92.5 229 76.5 216.667 72 210.5M72 210.5C48.5 207.5 2.00002 192.5 1.00002 111.5C0.200022 46.7 19 1 78.5002 1H337C364.5 1 393 9.5 393 40.5C393 71.5 387.5 79.5 337 79.5M393 145C393 145 110 145 83 145M393 145C393 145 383.721 117.057 371.5 103.5C360.511 91.3096 337 79.5 337 79.5M393 145H83M83 145C56 145 45.5 79.5 83 79.5M83 79.5C120.5 79.5 337 79.5 337 79.5M83 79.5H337" stroke="black"/>
</svg>
